<?xml version="1.0" encoding="UTF-8"?>
<svg version="1.1" xmlns="http://www.w3.org/2000/svg" width="1024" height="1024">
<path d="M0 0 C1.4377327 -0.00101212 1.4377327 -0.00101212 2.9045105 -0.00204468 C20.06562215 0.01697168 36.77895696 1.06493276 53.8125 3.25 C55.18894624 3.41412585 56.56558032 3.57668291 57.94238281 3.73779297 C89.53647109 7.45856984 120.22922 14.37617617 149.8125 26.25 C150.86018555 26.66475586 151.90787109 27.07951172 152.98730469 27.50683594 C176.46306337 36.867557 198.83103138 48.13306978 219.8125 62.25 C220.5334082 62.73291504 221.25431641 63.21583008 221.99707031 63.71337891 C232.49033899 70.79479839 242.2946046 78.56141837 251.97167969 86.71337891 C254.3844017 88.72739381 256.8501154 90.67220255 259.3125 92.625 C277.15023915 107.23418907 294.69335657 124.00733594 308.8125 142.25 C309.71139543 143.34009227 310.6139893 144.42714145 311.51953125 145.51171875 C333.19654026 171.6547183 351.21177163 201.7352949 363.8125 233.25 C364.27736816 234.40161621 364.74223633 235.55323242 365.22119141 236.73974609 C372.03777251 253.65813809 378.23559722 270.5671375 382.8125 288.25 C383.11526855 289.40773926 383.41803711 290.56547852 383.72998047 291.75830078 C387.71820878 307.16188816 391.13745128 322.42167389 392.8125 338.25 C392.94640137 339.46187988 393.08030273 340.67375977 393.21826172 341.92236328 C400.06373699 404.68410373 394.5454172 470.02352565 371.8125 529.25 C371.42336426 530.28237793 371.03422852 531.31475586 370.63330078 532.37841797 C364.55992243 548.42398003 357.56357545 563.94705899 349.8125 579.25 C349.37357422 580.11931152 348.93464844 580.98862305 348.48242188 581.88427734 C327.07042866 623.76842438 293.9740635 665.17916729 256.8125 694.25 C255.01819276 695.7259624 253.22657377 697.20519824 251.4375 698.6875 C240.61117284 707.52031083 229.57946715 715.71648182 217.8125 723.25 C217.03374512 723.74902832 216.25499023 724.24805664 215.45263672 724.76220703 C162.9031678 758.25153491 103.71379949 780.81137169 41.18701172 785.08691406 C39.01996731 785.23575075 36.85621467 785.40803688 34.69140625 785.5859375 C18.4542141 786.80745824 2.08318343 786.42936791 -14.1875 786.25 C-15.39631836 786.23743164 -16.60513672 786.22486328 -17.85058594 786.21191406 C-100.50633226 785.03489239 -184.01656719 750.76797882 -247.11865234 697.95410156 C-248.57072991 696.75803106 -250.04169213 695.58469688 -251.52587891 694.42871094 C-259.80944708 687.89584992 -267.19206982 680.5495057 -274.62207031 673.07617188 C-276.80834876 670.8791716 -279.00511938 668.69307322 -281.203125 666.5078125 C-288.65190259 659.06646556 -295.7605176 651.60562348 -302.1875 643.25 C-303.05716335 642.15484601 -303.92693321 641.05977657 -304.796875 639.96484375 C-320.88280931 619.0942246 -335.89140406 597.59421378 -348.1875 574.25 C-348.53619141 573.59112793 -348.88488281 572.93225586 -349.24414062 572.25341797 C-358.51351225 554.60527879 -366.01465708 536.19191107 -372.1875 517.25 C-372.47866699 516.36119141 -372.76983398 515.47238281 -373.06982422 514.55664062 C-380.97141606 490.19232142 -386.07163538 465.66143198 -389.1875 440.25 C-389.30077637 439.33041504 -389.41405273 438.41083008 -389.53076172 437.46337891 C-390.18011933 432.06642727 -390.73176427 426.66667377 -391.1875 421.25 C-391.27427002 420.23824707 -391.27427002 420.23824707 -391.36279297 419.20605469 C-391.79438368 413.89121356 -392.02586004 408.57939236 -392.1875 403.25 C-392.23849854 401.68233887 -392.23849854 401.68233887 -392.29052734 400.08300781 C-393.15833216 368.95656716 -390.43909881 337.55948833 -383.1875 307.25 C-382.89327148 305.98720215 -382.59904297 304.7244043 -382.29589844 303.42333984 C-378.47518386 287.05896369 -374.38647311 270.90106807 -368.1875 255.25 C-367.76484863 254.1775 -367.34219727 253.105 -366.90673828 252 C-357.76371632 228.98491653 -348.02622313 206.19117834 -334.53759766 185.34423828 C-333.17476536 183.23024633 -331.84114031 181.09997534 -330.51171875 178.96484375 C-324.43524122 169.28569414 -317.76158797 160.19663719 -310.71142578 151.20751953 C-309.29693116 149.39056697 -307.90679872 147.55847303 -306.52734375 145.71484375 C-301.58172686 139.12229969 -296.34185071 132.96247079 -290.7109375 126.95703125 C-288.62515269 124.7194943 -286.6104729 122.45070652 -284.625 120.125 C-278.67936427 113.28325171 -272.18169867 106.96310784 -265.29296875 101.078125 C-262.83022972 98.9397913 -260.45262657 96.71915401 -258.0625 94.5 C-252.25493021 89.20580655 -246.14586688 84.37477011 -239.91650391 79.58935547 C-238.28869015 78.32838593 -236.68071477 77.04192502 -235.07421875 75.75390625 C-225.92089997 68.4847522 -216.19005706 62.28383776 -206.1875 56.25 C-204.9495166 55.50314941 -204.9495166 55.50314941 -203.68652344 54.74121094 C-141.41546426 17.5047186 -72.23635288 0.04646336 0 0 Z " fill="#000000" transform="translate(510.1875,119.75)"/>
<path d="M0 0 C-3.24068768 81.24068768 -3.24068768 81.24068768 -15 93 C-16.78926142 93.10173058 -18.58285482 93.12960706 -20.375 93.125 C-21.35210938 93.12757813 -22.32921875 93.13015625 -23.3359375 93.1328125 C-26.31426041 93.02485623 -29.21679072 92.80296407 -32.1796875 92.51171875 C-52.30886435 90.60867125 -73.4928887 90.27847471 -90.0546875 103.66015625 C-102.4003209 115.29048471 -105.94834607 132.18309392 -109.6953125 148.08203125 C-110.01792032 149.43681987 -110.34091562 150.79151628 -110.66430664 152.14611816 C-111.44667274 155.42986223 -112.22513256 158.71447991 -113 162 C-112.12160965 161.99555878 -111.2432193 161.99111755 -110.33821106 161.98654175 C-102.05459123 161.94644455 -93.77100407 161.91600515 -85.48730946 161.89637566 C-81.22872078 161.88594465 -76.97021239 161.87179791 -72.71166992 161.84912109 C-68.60087483 161.82736837 -64.49015691 161.81542623 -60.3793087 161.81024551 C-58.81204705 161.80655412 -57.24478955 161.79934575 -55.67756081 161.78853989 C-53.48001652 161.77399258 -51.28278988 161.7720234 -49.08520508 161.77294922 C-47.83500076 161.768508 -46.58479645 161.76406677 -45.29670715 161.75949097 C-42.09315668 161.99320382 -39.87762603 162.62102591 -37 164 C-37.1853833 164.86488037 -37.3707666 165.72976074 -37.56176758 166.62084961 C-38.81695865 172.47747966 -40.07175088 178.33419318 -41.32421875 184.19140625 C-42.72326747 190.73207421 -44.12590319 197.27197009 -45.53015137 203.81152344 C-45.85651731 205.33168154 -46.18276184 206.85186571 -46.50891113 208.37207031 C-47.5946904 213.43288473 -48.68237478 218.49328388 -49.77236938 223.55319214 C-50.13150072 225.2216239 -50.49004477 226.89018219 -50.84799194 228.55886841 C-51.35149262 230.90547785 -51.85713098 233.2516171 -52.36328125 235.59765625 C-52.51407135 236.30265259 -52.66486145 237.00764893 -52.82022095 237.73400879 C-53.43000931 240.55136611 -54.08744179 243.26232536 -55 246 C-79.09 246.33 -103.18 246.66 -128 247 C-133.76791419 275.7535754 -133.76791419 275.7535754 -139.08847046 304.57940674 C-140.02732806 309.9088027 -140.97984092 315.23575229 -141.93359375 320.5625 C-142.11616226 321.58227936 -142.29873077 322.60205872 -142.48683167 323.65274048 C-143.97694015 331.94179203 -145.57623389 340.20254563 -147.26708984 348.453125 C-148.845729 356.16194436 -150.31032077 363.88907222 -151.75 371.625 C-154.05796368 384.02631549 -156.41616447 396.41738064 -158.79705811 408.80490112 C-163.29006757 432.18643884 -167.67683815 455.5865105 -172 479 C-172.16346924 479.88500183 -172.32693848 480.77000366 -172.49536133 481.68182373 C-174.05132336 490.10614337 -175.60588041 498.53072319 -177.15560913 506.95619202 C-177.41689243 508.37614697 -177.67861461 509.79602126 -177.94082642 511.21580505 C-178.50854977 514.2952848 -179.06545189 517.37595057 -179.60253906 520.4609375 C-179.7775293 521.46382812 -179.95251953 522.46671875 -180.1328125 523.5 C-180.2786377 524.3559375 -180.42446289 525.211875 -180.57470703 526.09375 C-181 528 -181 528 -182 529 C-183.39271183 529.09976333 -184.79042929 529.13074711 -186.18670654 529.13371277 C-187.08958405 529.13797775 -187.99246155 529.14224274 -188.92269897 529.14663696 C-189.92112823 529.14618378 -190.9195575 529.14573059 -191.94824219 529.14526367 C-192.99374237 529.14862228 -194.03924255 529.1519809 -195.11642456 529.15544128 C-198.59325327 529.16498611 -202.07003398 529.16689635 -205.546875 529.16796875 C-207.95485454 529.17117956 -210.36283387 529.17454349 -212.77081299 529.17805481 C-217.82833305 529.18405539 -222.885836 529.18589383 -227.94335938 529.18530273 C-234.42788516 529.18520121 -240.9123012 529.1988389 -247.39680099 529.21607494 C-252.37417099 529.22718944 -257.35151444 529.22922209 -262.32889557 529.22869301 C-264.71951932 529.22987452 -267.11014373 529.23430581 -269.50075531 529.24202538 C-272.84530828 529.25181132 -276.18962296 529.24895229 -279.53417969 529.24291992 C-280.52451202 529.24853943 -281.51484436 529.25415894 -282.53518677 529.25994873 C-287.11637689 529.23892854 -290.85360533 529.21218512 -295 527 C-294.30946156 520.98610894 -293.33666876 515.072388 -292.21484375 509.125 C-292.03827744 508.17977982 -291.86171112 507.23455963 -291.67979431 506.26069641 C-291.10186509 503.17325785 -290.51993625 500.08659128 -289.9375 497 C-289.73747375 495.93566742 -289.53744751 494.87133484 -289.33135986 493.77474976 C-286.44915303 478.44456636 -283.46404053 463.13781763 -280.37741089 447.84759521 C-278.01038283 436.12019909 -275.71297179 424.38246006 -273.5 412.625 C-273.28475174 411.48292587 -273.28475174 411.48292587 -273.06515503 410.31777954 C-271.75238233 403.3506214 -270.44412484 396.3826238 -269.14404297 389.41308594 C-268.24714144 384.60772487 -267.34443588 379.80347716 -266.4375 375 C-266.28106018 374.17090118 -266.12462036 373.34180237 -265.96343994 372.48757935 C-263.60801403 360.04496587 -261.1263627 347.6294195 -258.58984375 335.22265625 C-258.43914806 334.48534964 -258.28845238 333.74804302 -258.13319016 332.98839378 C-256.89269484 326.92016727 -255.65118872 320.85214704 -254.40840149 314.7843895 C-250.02280487 293.36811694 -245.77976602 271.95478058 -242.44213867 250.3449707 C-242 248 -242 248 -241 246 C-262.12 246 -283.24 246 -305 246 C-303.8757655 231.38495144 -303.8757655 231.38495144 -302.6875 226.57421875 C-302.28736694 224.91253662 -302.28736694 224.91253662 -301.87915039 223.21728516 C-301.58903076 222.05245605 -301.29891113 220.88762695 -301 219.6875 C-300.37183198 217.08506562 -299.7455675 214.48222456 -299.12109375 211.87890625 C-298.95483994 211.1901239 -298.78858612 210.50134155 -298.61729431 209.79168701 C-296.32471385 200.26086904 -294.2037377 190.69069566 -292.0625 181.125 C-291.65699698 179.31727991 -291.25140016 177.50958086 -290.84570312 175.7019043 C-289.89581977 171.46823001 -288.94744333 167.23422097 -288 163 C-284.33468428 162.15478185 -280.9580702 161.87814175 -277.19995117 161.88647461 C-275.48874336 161.88658791 -275.48874336 161.88658791 -273.7429657 161.88670349 C-271.91146721 161.89444542 -271.91146721 161.89444542 -270.04296875 161.90234375 C-268.78486893 161.9037587 -267.5267691 161.90517365 -266.23054504 161.90663147 C-262.89821471 161.91127427 -259.56595368 161.92024772 -256.23364258 161.93133545 C-252.82829383 161.94159497 -249.4229379 161.94613879 -246.01757812 161.95117188 C-239.34503302 161.9621917 -232.67252051 161.978923 -226 162 C-225.9087812 160.79769745 -225.9087812 160.79769745 -225.8157196 159.57110596 C-225.7317543 158.50768982 -225.647789 157.44427368 -225.5612793 156.34863281 C-225.47984177 155.29959778 -225.39840424 154.25056274 -225.3144989 153.16973877 C-224.8298095 148.28470174 -223.85582818 143.54200226 -222.8125 138.75 C-222.59255371 137.72422852 -222.37260742 136.69845703 -222.14599609 135.64160156 C-212.28953873 90.31709333 -197.76106437 46.51657389 -156.72949219 20.08789062 C-132.77572376 5.02041574 -108.00668076 -3.27951632 -80 -7 C-78.89023804 -7.1546875 -78.89023804 -7.1546875 -77.75805664 -7.3125 C-54.45400339 -10.27813341 -21.6250928 -10.8125464 0 0 Z " fill="#F80E0C" transform="translate(683,262)"/>
<path d="M0 0 C1.4377327 -0.00101212 1.4377327 -0.00101212 2.9045105 -0.00204468 C20.06562215 0.01697168 36.77895696 1.06493276 53.8125 3.25 C55.18894624 3.41412585 56.56558032 3.57668291 57.94238281 3.73779297 C89.53647109 7.45856984 120.22922 14.37617617 149.8125 26.25 C150.86018555 26.66475586 151.90787109 27.07951172 152.98730469 27.50683594 C176.46306337 36.867557 198.83103138 48.13306978 219.8125 62.25 C220.5334082 62.73291504 221.25431641 63.21583008 221.99707031 63.71337891 C232.49033899 70.79479839 242.2946046 78.56141837 251.97167969 86.71337891 C254.3844017 88.72739381 256.8501154 90.67220255 259.3125 92.625 C277.15023915 107.23418907 294.69335657 124.00733594 308.8125 142.25 C309.71139543 143.34009227 310.6139893 144.42714145 311.51953125 145.51171875 C333.19654026 171.6547183 351.21177163 201.7352949 363.8125 233.25 C364.27736816 234.40161621 364.74223633 235.55323242 365.22119141 236.73974609 C372.03777251 253.65813809 378.23559722 270.5671375 382.8125 288.25 C383.11526855 289.40773926 383.41803711 290.56547852 383.72998047 291.75830078 C387.71820878 307.16188816 391.13745128 322.42167389 392.8125 338.25 C392.94640137 339.46187988 393.08030273 340.67375977 393.21826172 341.92236328 C400.06373699 404.68410373 394.5454172 470.02352565 371.8125 529.25 C371.42336426 530.28237793 371.03422852 531.31475586 370.63330078 532.37841797 C364.55992243 548.42398003 357.56357545 563.94705899 349.8125 579.25 C349.37357422 580.11931152 348.93464844 580.98862305 348.48242188 581.88427734 C327.07042866 623.76842438 293.9740635 665.17916729 256.8125 694.25 C255.01819276 695.7259624 253.22657377 697.20519824 251.4375 698.6875 C240.61117284 707.52031083 229.57946715 715.71648182 217.8125 723.25 C217.03374512 723.74902832 216.25499023 724.24805664 215.45263672 724.76220703 C162.9031678 758.25153491 103.71379949 780.81137169 41.18701172 785.08691406 C39.01996731 785.23575075 36.85621467 785.40803688 34.69140625 785.5859375 C18.4542141 786.80745824 2.08318343 786.42936791 -14.1875 786.25 C-15.39631836 786.23743164 -16.60513672 786.22486328 -17.85058594 786.21191406 C-100.50633226 785.03489239 -184.01656719 750.76797882 -247.11865234 697.95410156 C-248.57072991 696.75803106 -250.04169213 695.58469688 -251.52587891 694.42871094 C-259.80944708 687.89584992 -267.19206982 680.5495057 -274.62207031 673.07617188 C-276.80834876 670.8791716 -279.00511938 668.69307322 -281.203125 666.5078125 C-288.65190259 659.06646556 -295.7605176 651.60562348 -302.1875 643.25 C-303.05716335 642.15484601 -303.92693321 641.05977657 -304.796875 639.96484375 C-320.88280931 619.0942246 -335.89140406 597.59421378 -348.1875 574.25 C-348.53619141 573.59112793 -348.88488281 572.93225586 -349.24414062 572.25341797 C-358.51351225 554.60527879 -366.01465708 536.19191107 -372.1875 517.25 C-372.47866699 516.36119141 -372.76983398 515.47238281 -373.06982422 514.55664062 C-380.97141606 490.19232142 -386.07163538 465.66143198 -389.1875 440.25 C-389.30077637 439.33041504 -389.41405273 438.41083008 -389.53076172 437.46337891 C-390.18011933 432.06642727 -390.73176427 426.66667377 -391.1875 421.25 C-391.27427002 420.23824707 -391.27427002 420.23824707 -391.36279297 419.20605469 C-391.79438368 413.89121356 -392.02586004 408.57939236 -392.1875 403.25 C-392.23849854 401.68233887 -392.23849854 401.68233887 -392.29052734 400.08300781 C-393.15833216 368.95656716 -390.43909881 337.55948833 -383.1875 307.25 C-382.89327148 305.98720215 -382.59904297 304.7244043 -382.29589844 303.42333984 C-378.47518386 287.05896369 -374.38647311 270.90106807 -368.1875 255.25 C-367.76484863 254.1775 -367.34219727 253.105 -366.90673828 252 C-357.76371632 228.98491653 -348.02622313 206.19117834 -334.53759766 185.34423828 C-333.17476536 183.23024633 -331.84114031 181.09997534 -330.51171875 178.96484375 C-324.43524122 169.28569414 -317.76158797 160.19663719 -310.71142578 151.20751953 C-309.29693116 149.39056697 -307.90679872 147.55847303 -306.52734375 145.71484375 C-301.58172686 139.12229969 -296.34185071 132.96247079 -290.7109375 126.95703125 C-288.62515269 124.7194943 -286.6104729 122.45070652 -284.625 120.125 C-278.67936427 113.28325171 -272.18169867 106.96310784 -265.29296875 101.078125 C-262.83022972 98.9397913 -260.45262657 96.71915401 -258.0625 94.5 C-252.25493021 89.20580655 -246.14586688 84.37477011 -239.91650391 79.58935547 C-238.28869015 78.32838593 -236.68071477 77.04192502 -235.07421875 75.75390625 C-225.92089997 68.4847522 -216.19005706 62.28383776 -206.1875 56.25 C-204.9495166 55.50314941 -204.9495166 55.50314941 -203.68652344 54.74121094 C-141.41546426 17.5047186 -72.23635288 0.04646336 0 0 Z M-50.1875 30.25 C-51.39470703 30.44335938 -52.60191406 30.63671875 -53.84570312 30.8359375 C-89.58151051 36.74630074 -124.51225955 47.59489994 -157.1875 63.25 C-158.00524902 63.63768555 -158.82299805 64.02537109 -159.66552734 64.42480469 C-178.96929204 73.62281315 -196.99873214 84.53949797 -214.1875 97.25 C-214.77080078 97.68022461 -215.35410156 98.11044922 -215.95507812 98.55371094 C-236.53633532 113.82867644 -257.02021619 131.42976529 -272.98828125 151.5546875 C-275.22384979 154.29454948 -277.58006092 156.85982244 -280 159.4375 C-316.79420834 199.59217009 -339.18105456 252.32441201 -353.1875 304.25 C-353.42194824 305.10916016 -353.65639648 305.96832031 -353.89794922 306.85351562 C-357.45377711 320.07829265 -359.41374552 333.68712282 -361.1875 347.25 C-361.27683807 347.9099295 -361.36617615 348.56985901 -361.45822144 349.24978638 C-363.2308543 362.64032732 -363.52864432 375.93975047 -363.50317383 389.4362793 C-363.50001992 392.91552294 -363.52355117 396.39390781 -363.54882812 399.87304688 C-363.58854279 414.04786193 -362.6306661 427.78646779 -360.54989624 441.80722046 C-360.09031387 444.90509593 -359.6820565 448.00935388 -359.265625 451.11328125 C-347.72451096 529.47501955 -308.4287333 598.76394509 -253.14440918 654.46832275 C-252.14864564 655.47212632 -251.15436706 656.47740562 -250.16174316 657.48431396 C-243.51974866 664.21172245 -236.59198939 670.36963994 -229.1875 676.25 C-228.01358314 677.22646255 -226.8424969 678.20635066 -225.67578125 679.19140625 C-209.52723425 692.61416301 -191.56809873 704.12482536 -173.1875 714.25 C-172.33929688 714.71857422 -171.49109375 715.18714844 -170.6171875 715.66992188 C-119.33023594 743.7608519 -62.80488939 758.78232682 -4.3203125 758.45581055 C-0.92700704 758.4374432 2.46602467 758.43530268 5.859375 758.43554688 C24.45413732 758.40811298 42.43570927 757.49034329 60.8125 754.625 C61.66111603 754.49405945 62.50973206 754.3631189 63.38406372 754.22821045 C77.89302184 751.96404931 91.8299757 748.7793818 105.8125 744.25 C107.81498063 743.62590556 109.81758669 743.00221346 111.8203125 742.37890625 C131.1768501 736.24006071 150.04862567 728.65601474 168.02392578 719.18701172 C169.76569135 718.27452247 171.52140083 717.38880646 173.27734375 716.50390625 C191.93916697 706.91523465 209.49830087 695.42213796 225.8125 682.25 C226.83472656 681.43917969 227.85695313 680.62835937 228.91015625 679.79296875 C234.55686262 675.25813143 239.94317923 670.4798716 245.26953125 665.57421875 C247.37601167 663.64894094 249.5126648 661.78405819 251.6875 659.9375 C259.67979002 652.98338373 267.25258877 645.32182059 274.09765625 637.23828125 C276.14471009 634.86481792 278.2944149 632.59960042 280.4375 630.3125 C301.80841513 606.75299717 319.1875064 578.74389512 332.91259766 550.11914062 C333.77509831 548.32768512 334.65858157 546.54637751 335.54296875 544.765625 C344.77441417 525.75349484 351.42058507 505.65201626 356.8125 485.25 C357.08191406 484.23776367 357.35132813 483.22552734 357.62890625 482.18261719 C382.35962751 387.47112307 364.42199814 284.89939774 315.50878906 201.01416016 C305.26470086 183.65678822 292.73261117 167.69134766 279.1484375 152.83203125 C277.27196343 150.75786844 275.44181735 148.65821714 273.6171875 146.5390625 C269.45445152 141.77392792 265.03739249 137.28335782 260.5625 132.8125 C259.72348145 131.97356201 258.88446289 131.13462402 258.02001953 130.27026367 C252.92221584 125.21923334 247.78283208 120.47102587 242.1171875 116.0625 C239.90418509 114.32210488 237.86922266 112.48317485 235.8125 110.5625 C223.35524846 99.3954638 209.0671121 89.955462 194.8125 81.25 C194.03245605 80.77353027 193.25241211 80.29706055 192.44873047 79.80615234 C163.20882054 62.13879685 131.81027502 49.79430076 98.8125 41.25 C97.37722291 40.87456195 95.94200443 40.49889981 94.50683594 40.12304688 C70.47652058 33.75334402 70.47652058 33.75334402 46.00738525 29.52531433 C43.96300561 29.2688786 41.92083586 28.99499165 39.87890625 28.71972656 C27.39460032 27.11448251 15.012603 26.89126391 2.4375 26.9375 C1.38080109 26.93965515 0.32410217 26.9418103 -0.76461792 26.94403076 C-17.41442254 26.99840645 -33.72292047 27.56587481 -50.1875 30.25 Z " fill="#F90F0D" transform="translate(510.1875,119.75)"/>
<path d="M0 0 C0.96760254 0.19319824 1.93520508 0.38639648 2.93212891 0.58544922 C50.74470954 10.35324899 99.28086662 28.05780631 139 57 C139.58442871 57.4242627 140.16885742 57.84852539 140.77099609 58.28564453 C154.75858486 68.48323077 168.25670073 79.28052136 181 91 C182.64556862 92.45863203 184.29140772 93.91695895 185.9375 95.375 C193.47391521 102.16488352 200.70190203 109.2801821 207.28125 117.0078125 C208.48347961 118.40130591 209.71547441 119.7694189 210.96875 121.1171875 C229.27813306 140.8196758 244.80722293 164.06922161 257 188 C257.46325684 188.90733887 257.92651367 189.81467773 258.40380859 190.74951172 C266.66417635 207.09345305 273.62191176 223.84146697 280 241 C280.31163086 241.82483887 280.62326172 242.64967773 280.94433594 243.49951172 C286.04709156 257.13390645 289.10537989 271.3363819 292.23339844 285.52587891 C292.88362235 288.47259426 293.55240983 291.41417829 294.2265625 294.35546875 C295.30912252 299.21307165 296.203717 304.08774492 297 309 C297.14953125 309.90524414 297.2990625 310.81048828 297.453125 311.74316406 C300.28122483 329.97343692 300.31601908 348.28143273 300.375 366.6875 C300.38285522 367.89022552 300.39071045 369.09295105 300.39880371 370.3321228 C300.70100652 429.89092215 284.67569006 487.01517007 258 540 C257.5683252 540.86979492 257.13665039 541.73958984 256.69189453 542.63574219 C250.67038368 554.73519351 243.72927537 565.92284141 236 577 C235.49146484 577.73524902 234.98292969 578.47049805 234.45898438 579.22802734 C225.15904303 592.66685618 215.59479953 605.61335582 204.37792969 617.52490234 C202.11619597 619.94612756 199.90841242 622.41636529 197.6875 624.875 C188.99602905 634.38144357 180.07444942 643.68764266 169.9453125 651.67578125 C167.74159348 653.41479029 165.57937805 655.17693409 163.4296875 656.98046875 C153.40174858 665.35591097 142.94134546 672.86443314 132 680 C131.17902832 680.53625 130.35805664 681.0725 129.51220703 681.625 C79.83870525 713.80592543 22.32501509 735.1442376 -36.875 739.6875 C-37.67370514 739.75070435 -38.47241028 739.81390869 -39.2953186 739.87902832 C-53.88810564 741.01961314 -68.36373519 741.3641428 -83 741 C-85.09244755 740.96872568 -87.18489547 740.93747572 -89.27734375 740.90625 C-116.35051236 740.33996189 -142.7420379 736.52315986 -169 730 C-170.36294935 729.67957453 -171.72618265 729.36035151 -173.08984375 729.04296875 C-194.28573434 723.82148389 -214.40734224 715.4930421 -234 706 C-234.93827637 705.55398438 -235.87655273 705.10796875 -236.84326172 704.6484375 C-250.83079626 697.99627437 -264.00331658 690.41788275 -277 682 C-277.61053223 681.60683594 -278.22106445 681.21367188 -278.85009766 680.80859375 C-282.27398175 678.59608087 -285.64757399 676.319112 -289 674 C-290.07894531 673.2575 -291.15789062 672.515 -292.26953125 671.75 C-305.34595905 662.64392992 -317.56368118 652.56852027 -329.1640625 641.65234375 C-331.52762929 639.44179023 -333.92214627 637.29733012 -336.375 635.1875 C-341.97263545 630.32917489 -347.05306315 625.07822488 -351.87890625 619.45703125 C-353.51528547 617.56148331 -355.16902826 615.689022 -356.83984375 613.82421875 C-376.37385005 591.87987778 -393.47509581 567.07661417 -407 541 C-407.33902344 540.35224609 -407.67804688 539.70449219 -408.02734375 539.03710938 C-410.07176056 535.1113518 -412.03866085 531.1537967 -413.95507812 527.1640625 C-414.66886547 525.6857889 -415.391963 524.21198395 -416.12304688 522.7421875 C-451.97706357 450.43758145 -461.13573224 358.19619205 -441 280 C-440.68933594 278.78715332 -440.37867188 277.57430664 -440.05859375 276.32470703 C-435.17297372 257.45847922 -429.27928527 239.09579567 -422 221 C-421.66145996 220.15840332 -421.32291992 219.31680664 -420.97412109 218.44970703 C-408.55993646 188.11022079 -390.33725285 159.62095089 -370 134 C-369.27296875 133.07832031 -368.5459375 132.15664063 -367.796875 131.20703125 C-362.32965513 124.39267267 -356.4747875 117.99735869 -350.50976562 111.62304688 C-348.57187116 109.53974766 -346.66071547 107.43295319 -344.74951172 105.32519531 C-336.95650766 96.74873827 -329.03038831 88.63174312 -319.95703125 81.3984375 C-317.87028523 79.70588525 -315.83795767 78.00099105 -313.82421875 76.2265625 C-300.27473075 64.29072238 -285.75853401 53.82168254 -270 45 C-269.1037793 44.49388184 -268.20755859 43.98776367 -267.28417969 43.46630859 C-225.33834071 19.90872253 -179.96852997 2.03908205 -132 -4 C-130.99160065 -4.12988312 -130.99160065 -4.12988312 -129.96282959 -4.26239014 C-86.05254233 -9.90376611 -43.4275605 -8.6934212 0 0 Z M-127 4 C-128.20720703 4.19335938 -129.41441406 4.38671875 -130.65820312 4.5859375 C-166.39401051 10.49630074 -201.32475955 21.34489994 -234 37 C-234.81774902 37.38768555 -235.63549805 37.77537109 -236.47802734 38.17480469 C-255.78179204 47.37281315 -273.81123214 58.28949797 -291 71 C-291.58330078 71.43022461 -292.16660156 71.86044922 -292.76757812 72.30371094 C-313.34883532 87.57867644 -333.83271619 105.17976529 -349.80078125 125.3046875 C-352.03634979 128.04454948 -354.39256092 130.60982244 -356.8125 133.1875 C-393.60670834 173.34217009 -415.99355456 226.07441201 -430 278 C-430.23444824 278.85916016 -430.46889648 279.71832031 -430.71044922 280.60351562 C-434.26627711 293.82829265 -436.22624552 307.43712282 -438 321 C-438.08933807 321.6599295 -438.17867615 322.31985901 -438.27072144 322.99978638 C-440.0433543 336.39032732 -440.34114432 349.68975047 -440.31567383 363.1862793 C-440.31251992 366.66552294 -440.33605117 370.14390781 -440.36132812 373.62304688 C-440.40104279 387.79786193 -439.4431661 401.53646779 -437.36239624 415.55722046 C-436.90281387 418.65509593 -436.4945565 421.75935388 -436.078125 424.86328125 C-424.53701096 503.22501955 -385.2412333 572.51394509 -329.95690918 628.21832275 C-328.96114564 629.22212632 -327.96686706 630.22740562 -326.97424316 631.23431396 C-320.33224866 637.96172245 -313.40448939 644.11963994 -306 650 C-304.82608314 650.97646255 -303.6549969 651.95635066 -302.48828125 652.94140625 C-286.33973425 666.36416301 -268.38059873 677.87482536 -250 688 C-249.15179688 688.46857422 -248.30359375 688.93714844 -247.4296875 689.41992188 C-196.14273594 717.5108519 -139.61738939 732.53232682 -81.1328125 732.20581055 C-77.73950704 732.1874432 -74.34647533 732.18530268 -70.953125 732.18554688 C-52.35836268 732.15811298 -34.37679073 731.24034329 -16 728.375 C-15.15138397 728.24405945 -14.30276794 728.1131189 -13.42843628 727.97821045 C1.08052184 725.71404931 15.0174757 722.5293818 29 718 C31.00248063 717.37590556 33.00508669 716.75221346 35.0078125 716.12890625 C54.3643501 709.99006071 73.23612567 702.40601474 91.21142578 692.93701172 C92.95319135 692.02452247 94.70890083 691.13880646 96.46484375 690.25390625 C115.12666697 680.66523465 132.68580087 669.17213796 149 656 C150.02222656 655.18917969 151.04445313 654.37835937 152.09765625 653.54296875 C157.74436262 649.00813143 163.13067923 644.2298716 168.45703125 639.32421875 C170.56351167 637.39894094 172.7001648 635.53405819 174.875 633.6875 C182.86729002 626.73338373 190.44008877 619.07182059 197.28515625 610.98828125 C199.33221009 608.61481792 201.4819149 606.34960042 203.625 604.0625 C224.99591513 580.50299717 242.3750064 552.49389512 256.10009766 523.86914062 C256.96259831 522.07768512 257.84608157 520.29637751 258.73046875 518.515625 C267.96191417 499.50349484 274.60808507 479.40201626 280 459 C280.26941406 457.98776367 280.53882813 456.97552734 280.81640625 455.93261719 C305.54712751 361.22112307 287.60949814 258.64939774 238.69628906 174.76416016 C228.45220086 157.40678822 215.92011117 141.44134766 202.3359375 126.58203125 C200.45946343 124.50786844 198.62931735 122.40821714 196.8046875 120.2890625 C192.64195152 115.52392792 188.22489249 111.03335782 183.75 106.5625 C182.91098145 105.72356201 182.07196289 104.88462402 181.20751953 104.02026367 C176.10971584 98.96923334 170.97033208 94.22102587 165.3046875 89.8125 C163.09168509 88.07210488 161.05672266 86.23317485 159 84.3125 C146.54274846 73.1454638 132.2546121 63.705462 118 55 C117.21995605 54.52353027 116.43991211 54.04706055 115.63623047 53.55615234 C86.39632054 35.88879685 54.99777502 23.54430076 22 15 C20.56472291 14.62456195 19.12950443 14.24889981 17.69433594 13.87304688 C-6.33597942 7.50334402 -6.33597942 7.50334402 -30.80511475 3.27531433 C-32.84949439 3.0188786 -34.89166414 2.74499165 -36.93359375 2.46972656 C-49.41789968 0.86448251 -61.799897 0.64126391 -74.375 0.6875 C-75.43169891 0.68965515 -76.48839783 0.6918103 -77.57711792 0.69403076 C-94.22692254 0.74840645 -110.53542047 1.31587481 -127 4 Z " fill="#FBF8F8" transform="translate(587,146)"/>
<path d="M0 0 C-3.24068768 81.24068768 -3.24068768 81.24068768 -15 93 C-16.78926142 93.10173058 -18.58285482 93.12960706 -20.375 93.125 C-21.35210938 93.12757813 -22.32921875 93.13015625 -23.3359375 93.1328125 C-26.31426041 93.02485623 -29.21679072 92.80296407 -32.1796875 92.51171875 C-52.30886435 90.60867125 -73.4928887 90.27847471 -90.0546875 103.66015625 C-102.4003209 115.29048471 -105.94834607 132.18309392 -109.6953125 148.08203125 C-110.01792032 149.43681987 -110.34091562 150.79151628 -110.66430664 152.14611816 C-111.44667274 155.42986223 -112.22513256 158.71447991 -113 162 C-112.12160965 161.99555878 -111.2432193 161.99111755 -110.33821106 161.98654175 C-102.05459123 161.94644455 -93.77100407 161.91600515 -85.48730946 161.89637566 C-81.22872078 161.88594465 -76.97021239 161.87179791 -72.71166992 161.84912109 C-68.60087483 161.82736837 -64.49015691 161.81542623 -60.3793087 161.81024551 C-58.81204705 161.80655412 -57.24478955 161.79934575 -55.67756081 161.78853989 C-53.48001652 161.77399258 -51.28278988 161.7720234 -49.08520508 161.77294922 C-47.83500076 161.768508 -46.58479645 161.76406677 -45.29670715 161.75949097 C-42.09315668 161.99320382 -39.87762603 162.62102591 -37 164 C-37.1853833 164.86488037 -37.3707666 165.72976074 -37.56176758 166.62084961 C-38.81695865 172.47747966 -40.07175088 178.33419318 -41.32421875 184.19140625 C-42.72326747 190.73207421 -44.12590319 197.27197009 -45.53015137 203.81152344 C-45.85651731 205.33168154 -46.18276184 206.85186571 -46.50891113 208.37207031 C-47.5946904 213.43288473 -48.68237478 218.49328388 -49.77236938 223.55319214 C-50.13150072 225.2216239 -50.49004477 226.89018219 -50.84799194 228.55886841 C-51.35149262 230.90547785 -51.85713098 233.2516171 -52.36328125 235.59765625 C-52.51407135 236.30265259 -52.66486145 237.00764893 -52.82022095 237.73400879 C-53.43000931 240.55136611 -54.08744179 243.26232536 -55 246 C-79.09 246.33 -103.18 246.66 -128 247 C-133.76791419 275.7535754 -133.76791419 275.7535754 -139.08847046 304.57940674 C-140.02732806 309.9088027 -140.97984092 315.23575229 -141.93359375 320.5625 C-142.11616226 321.58227936 -142.29873077 322.60205872 -142.48683167 323.65274048 C-143.97694015 331.94179203 -145.57623389 340.20254563 -147.26708984 348.453125 C-148.845729 356.16194436 -150.31032077 363.88907222 -151.75 371.625 C-154.05796368 384.02631549 -156.41616447 396.41738064 -158.79705811 408.80490112 C-163.29006757 432.18643884 -167.67683815 455.5865105 -172 479 C-172.16346924 479.88500183 -172.32693848 480.77000366 -172.49536133 481.68182373 C-174.05132336 490.10614337 -175.60588041 498.53072319 -177.15560913 506.95619202 C-177.41689243 508.37614697 -177.67861461 509.79602126 -177.94082642 511.21580505 C-178.50854977 514.2952848 -179.06545189 517.37595057 -179.60253906 520.4609375 C-179.7775293 521.46382812 -179.95251953 522.46671875 -180.1328125 523.5 C-180.2786377 524.3559375 -180.42446289 525.211875 -180.57470703 526.09375 C-181 528 -181 528 -182 529 C-183.39271183 529.09976333 -184.79042929 529.13074711 -186.18670654 529.13371277 C-187.08958405 529.13797775 -187.99246155 529.14224274 -188.92269897 529.14663696 C-189.92112823 529.14618378 -190.9195575 529.14573059 -191.94824219 529.14526367 C-192.99374237 529.14862228 -194.03924255 529.1519809 -195.11642456 529.15544128 C-198.59325327 529.16498611 -202.07003398 529.16689635 -205.546875 529.16796875 C-207.95485454 529.17117956 -210.36283387 529.17454349 -212.77081299 529.17805481 C-217.82833305 529.18405539 -222.885836 529.18589383 -227.94335938 529.18530273 C-234.42788516 529.18520121 -240.9123012 529.1988389 -247.39680099 529.21607494 C-252.37417099 529.22718944 -257.35151444 529.22922209 -262.32889557 529.22869301 C-264.71951932 529.22987452 -267.11014373 529.23430581 -269.50075531 529.24202538 C-272.84530828 529.25181132 -276.18962296 529.24895229 -279.53417969 529.24291992 C-280.52451202 529.24853943 -281.51484436 529.25415894 -282.53518677 529.25994873 C-287.11637689 529.23892854 -290.85360533 529.21218512 -295 527 C-294.30946156 520.98610894 -293.33666876 515.072388 -292.21484375 509.125 C-292.03827744 508.17977982 -291.86171112 507.23455963 -291.67979431 506.26069641 C-291.10186509 503.17325785 -290.51993625 500.08659128 -289.9375 497 C-289.73747375 495.93566742 -289.53744751 494.87133484 -289.33135986 493.77474976 C-286.44915303 478.44456636 -283.46404053 463.13781763 -280.37741089 447.84759521 C-278.01038283 436.12019909 -275.71297179 424.38246006 -273.5 412.625 C-273.28475174 411.48292587 -273.28475174 411.48292587 -273.06515503 410.31777954 C-271.75238233 403.3506214 -270.44412484 396.3826238 -269.14404297 389.41308594 C-268.24714144 384.60772487 -267.34443588 379.80347716 -266.4375 375 C-266.28106018 374.17090118 -266.12462036 373.34180237 -265.96343994 372.48757935 C-263.60801403 360.04496587 -261.1263627 347.6294195 -258.58984375 335.22265625 C-258.43914806 334.48534964 -258.28845238 333.74804302 -258.13319016 332.98839378 C-256.89269484 326.92016727 -255.65118872 320.85214704 -254.40840149 314.7843895 C-250.02280487 293.36811694 -245.77976602 271.95478058 -242.44213867 250.3449707 C-242 248 -242 248 -241 246 C-262.12 246 -283.24 246 -305 246 C-303.8757655 231.38495144 -303.8757655 231.38495144 -302.6875 226.57421875 C-302.28736694 224.91253662 -302.28736694 224.91253662 -301.87915039 223.21728516 C-301.58903076 222.05245605 -301.29891113 220.88762695 -301 219.6875 C-300.37183198 217.08506562 -299.7455675 214.48222456 -299.12109375 211.87890625 C-298.95483994 211.1901239 -298.78858612 210.50134155 -298.61729431 209.79168701 C-296.32471385 200.26086904 -294.2037377 190.69069566 -292.0625 181.125 C-291.65699698 179.31727991 -291.25140016 177.50958086 -290.84570312 175.7019043 C-289.89581977 171.46823001 -288.94744333 167.23422097 -288 163 C-284.33468428 162.15478185 -280.9580702 161.87814175 -277.19995117 161.88647461 C-275.48874336 161.88658791 -275.48874336 161.88658791 -273.7429657 161.88670349 C-271.91146721 161.89444542 -271.91146721 161.89444542 -270.04296875 161.90234375 C-268.78486893 161.9037587 -267.5267691 161.90517365 -266.23054504 161.90663147 C-262.89821471 161.91127427 -259.56595368 161.92024772 -256.23364258 161.93133545 C-252.82829383 161.94159497 -249.4229379 161.94613879 -246.01757812 161.95117188 C-239.34503302 161.9621917 -232.67252051 161.978923 -226 162 C-225.9087812 160.79769745 -225.9087812 160.79769745 -225.8157196 159.57110596 C-225.7317543 158.50768982 -225.647789 157.44427368 -225.5612793 156.34863281 C-225.47984177 155.29959778 -225.39840424 154.25056274 -225.3144989 153.16973877 C-224.8298095 148.28470174 -223.85582818 143.54200226 -222.8125 138.75 C-222.59255371 137.72422852 -222.37260742 136.69845703 -222.14599609 135.64160156 C-212.28953873 90.31709333 -197.76106437 46.51657389 -156.72949219 20.08789062 C-132.77572376 5.02041574 -108.00668076 -3.27951632 -80 -7 C-78.89023804 -7.1546875 -78.89023804 -7.1546875 -77.75805664 -7.3125 C-54.45400339 -10.27813341 -21.6250928 -10.8125464 0 0 Z M-177.375 47.625 C-199.66468142 74.13164818 -206.92203479 105.98462924 -214 139 C-214.15571472 139.72461426 -214.31142944 140.44922852 -214.47186279 141.19580078 C-216.00118422 148.32206538 -217.50505906 155.45369387 -218.96875 162.59375 C-219.16919922 163.57021484 -219.36964844 164.54667969 -219.57617188 165.55273438 C-220.08532211 168.07871724 -220.08532211 168.07871724 -220 171 C-240.46 171 -260.92 171 -282 171 C-287.57133048 194.75879911 -287.57133048 194.75879911 -292.9375 218.5625 C-293.24283022 219.92513207 -293.54816882 221.28776227 -293.85351562 222.65039062 C-294.14109366 223.955626 -294.42822406 225.2609601 -294.71484375 226.56640625 C-295.08790649 228.25165405 -295.08790649 228.25165405 -295.46850586 229.97094727 C-296.14402096 233.30823899 -296.14402096 233.30823899 -296 238 C-274.55 238 -253.1 238 -231 238 C-231.99 241.96 -232.98 245.92 -234 250 C-234.80996288 253.9219081 -235.59448301 257.83965367 -236.33984375 261.7734375 C-236.54807266 262.85847565 -236.75630157 263.94351379 -236.97084045 265.06143188 C-237.40848201 267.34517887 -237.84453273 269.62923125 -238.27905273 271.91357422 C-238.92938952 275.33236359 -239.58434416 278.75024092 -240.24023438 282.16796875 C-242.1806811 292.30245831 -244.08940686 302.44097028 -245.91015625 312.59765625 C-248.45106029 326.72636598 -251.27673142 340.80073808 -254.06781006 354.88165283 C-255.34948859 361.3490523 -256.62808421 367.8170618 -257.90625 374.28515625 C-258.04307568 374.97717636 -258.17990135 375.66919647 -258.32087326 376.38218689 C-260.14030548 385.58735145 -261.92727303 394.79799871 -263.67068481 404.01786804 C-265.04581996 411.2793397 -266.48837427 418.52630531 -267.95053101 425.77069092 C-271.39159508 442.82979885 -274.72024523 459.90919046 -278 477 C-278.19190918 477.99692871 -278.38381836 478.99385742 -278.58154297 480.02099609 C-278.75959473 480.94605957 -278.93764648 481.87112305 -279.12109375 482.82421875 C-279.27118896 483.60369873 -279.42128418 484.38317871 -279.57592773 485.1862793 C-281.78915392 496.77988433 -283.88826901 508.38547954 -286 520 C-253.66 520 -221.32 520 -188 520 C-186.185 510.285625 -184.37 500.57125 -182.5 490.5625 C-178.91816552 471.42478503 -175.3186198 452.29192673 -171.5625 433.1875 C-167.872185 414.40820023 -164.2927932 395.61484622 -161.0625 376.75 C-158.34220819 360.8783593 -155.25942429 345.06330711 -152.04052734 329.28564453 C-149.84243659 318.48389692 -147.8581904 307.66511091 -146.04837036 296.79180908 C-143.47545428 281.34466856 -140.74813399 265.93530624 -137.77783203 250.55957031 C-137.54306152 249.33592773 -137.30829102 248.11228516 -137.06640625 246.8515625 C-136.85959229 245.78760254 -136.65277832 244.72364258 -136.43969727 243.62744141 C-135.91747357 240.95085407 -135.91747357 240.95085407 -136 238 C-111.25 238 -86.5 238 -61 238 C-57.51450263 221.18833855 -57.51450263 221.18833855 -54.0300293 204.37646484 C-53.58646225 202.23794816 -53.14286092 200.0994386 -52.69921875 197.9609375 C-52.36597595 196.35182495 -52.36597595 196.35182495 -52.02600098 194.71020508 C-50.38415153 186.79907141 -48.69302928 178.90080331 -47 171 C-71.75 171 -96.5 171 -122 171 C-111.04787864 114.67480446 -111.04787864 114.67480446 -97 99 C-96.51402344 98.44699219 -96.02804687 97.89398438 -95.52734375 97.32421875 C-89.94308138 91.79708438 -82.26716968 89.51611331 -75 87 C-73.845 86.58234375 -72.69 86.1646875 -71.5 85.734375 C-54.97770614 80.49739793 -36.89105548 82.46067354 -20 85 C-15.8821314 64.76256981 -12.742888 44.62329627 -10.8125 24.0625 C-10.72846924 23.16885742 -10.64443848 22.27521484 -10.55786133 21.35449219 C-10.10603609 16.2139421 -9.92226824 11.16019274 -10 6 C-65.48757403 -10.89745053 -137.60812717 3.67214055 -177.375 47.625 Z " fill="#FAF8F8" transform="translate(683,262)"/>
<path d="M0 0 C0.33 0 0.66 0 1 0 C1.50404808 2.10320063 2.00310508 4.20759791 2.5 6.3125 C2.7784375 7.48425781 3.056875 8.65601563 3.34375 9.86328125 C4 13 4 13 4 16 C3.34 16 2.68 16 2 16 C1.67 13.36 1.34 10.72 1 8 C0.34 8 -0.32 8 -1 8 C-0.67 5.36 -0.34 2.72 0 0 Z " fill="#F91B1B" transform="translate(144,589)"/>
<path d="M0 0 C4.455 1.98 4.455 1.98 9 4 C8.34 4.66 7.68 5.32 7 6 C3.535 4.02 3.535 4.02 0 2 C0 1.34 0 0.68 0 0 Z " fill="#F81617" transform="translate(350,850)"/>
<path d="M0 0 C1.88343932 3.76687864 2.22057835 5.02958963 2 9 C1.01 9 0.02 9 -1 9 C-0.67 6.03 -0.34 3.06 0 0 Z " fill="#F91E1E" transform="translate(470,396)"/>
<path d="" fill="#000000" transform="translate(0,0)"/>
</svg>
